<mxfile host="app.diagrams.net" modified="2023-05-21T10:04:42.344Z" agent="Mozilla/5.0 (X11; Linux x86_64) AppleWebKit/537.36 (KHTML, like Gecko) Chrome/113.0.0.0 Safari/537.36" etag="KvIgjH4yOF_0KVl97nRy" version="21.3.2" type="github" pages="2">
  <diagram name="Page-1" id="JpaJD48Nx7tmYssmI47n">
    <mxGraphModel dx="2026" dy="1323" grid="1" gridSize="10" guides="1" tooltips="1" connect="1" arrows="1" fold="1" page="1" pageScale="1" pageWidth="827" pageHeight="1169" math="0" shadow="0">
      <root>
        <mxCell id="0" />
        <mxCell id="1" parent="0" />
        <mxCell id="YT_frCBvJ8fdYRwzGlQ4-1" value="阿达" style="html=1;whiteSpace=wrap;" vertex="1" parent="1">
          <mxGeometry x="340" y="390" width="110" height="50" as="geometry" />
        </mxCell>
        <mxCell id="YT_frCBvJ8fdYRwzGlQ4-2" value="Object" style="html=1;whiteSpace=wrap;" vertex="1" parent="1">
          <mxGeometry x="1570" y="430" width="110" height="50" as="geometry" />
        </mxCell>
      </root>
    </mxGraphModel>
  </diagram>
  <diagram id="WHwWGtKaNwcCnC8YmeIJ" name="Page-2">
    <mxGraphModel dx="1418" dy="926" grid="1" gridSize="10" guides="1" tooltips="1" connect="1" arrows="1" fold="1" page="1" pageScale="1" pageWidth="827" pageHeight="1169" math="0" shadow="0">
      <root>
        <mxCell id="0" />
        <mxCell id="1" parent="0" />
      </root>
    </mxGraphModel>
  </diagram>
</mxfile>
